<?xml version="1.0" encoding="UTF-8"?><svg xmlns="http://www.w3.org/2000/svg" viewBox="0 0 1663.01 447"><defs><style>.d{fill:#f9f9f9;font-family:MontserratAlternates-Regular, Montserrat Alternates;font-size:398px;}</style></defs><g id="a"/><g id="b"><g id="c"><g><g><path d="M1462.51,56.51c-78.7,0-142.5,63.8-142.5,142.5s63.8,142.5,142.5,142.5,142.5-63.8,142.5-142.5-63.8-142.5-142.5-142.5Zm-.5,271c-71.24,0-129-57.76-129-129s57.76-129,129-129,129,57.76,129,129-57.76,129-129,129Z"/><rect x="1107.01" y="195.51" width="226" height="19"/><rect x="1591.01" y="185.51" width="72" height="19"/><rect x="1190.01" y="266.51" width="72" height="19" rx="9.5" ry="9.5" transform="translate(373.97 1199.76) rotate(-60)"/><rect x="1323.51" y="239.01" width="19" height="72" rx="9.5" ry="9.5" transform="translate(26.03 654.96) rotate(-27.87)"/><path d="M1097.01,327.51c-71.24,0-129-57.76-129-129s57.76-129,129-129c52.93,0,98.41,31.89,118.3,77.5h14.91c-20.78-52.98-72.36-90.5-132.71-90.5-78.7,0-142.5,63.8-142.5,142.5s63.8,142.5,142.5,142.5c73.98,0,134.78-56.37,141.81-128.5h-14.13c-7.21,64.41-61.85,114.5-128.18,114.5Z"/></g><text class="d" transform="translate(0 341.68) scale(1.02)"><tspan x="0" y="0">DRA</tspan></text></g></g></g></svg>